<svg xmlns="http://www.w3.org/2000/svg" xmlns:xlink="http://www.w3.org/1999/xlink" width="323" height="725" viewBox="0 0 323 725">
  <defs>
    <linearGradient id="linear-gradient" x1="0.5" x2="0.5" y2="1" gradientUnits="objectBoundingBox">
      <stop offset="0" stop-color="#94df8e"/>
      <stop offset="1" stop-color="#31beb5"/>
    </linearGradient>
    <filter id="Rectángulo_2" x="0" y="0" width="323" height="412" filterUnits="userSpaceOnUse">
      <feOffset dy="4" input="SourceAlpha"/>
      <feGaussianBlur stdDeviation="32" result="blur"/>
      <feFlood flood-color="#65cfa0"/>
      <feComposite operator="in" in2="blur"/>
      <feComposite in="SourceGraphic"/>
    </filter>
  </defs>
  <g id="led" transform="translate(-119 -240)">
    <rect id="Rectángulo_4" data-name="Rectángulo 4" width="10" height="360" rx="4" transform="translate(307 545)" fill="#ebebeb"/>
    <rect id="Rectángulo_3" data-name="Rectángulo 3" width="10" height="420" rx="4" transform="translate(244 545)" fill="#ebebeb"/>
    <g transform="matrix(1, 0, 0, 1, 119, 240)" filter="url(#Rectángulo_2)">
      <path id="Rectángulo_2-2" data-name="Rectángulo 2" d="M65.5,0h0A65.5,65.5,0,0,1,131,65.5V220a0,0,0,0,1,0,0H0a0,0,0,0,1,0,0V65.5A65.5,65.5,0,0,1,65.5,0Z" transform="translate(96 92)" fill="url(#linear-gradient)"/>
    </g>
    <path id="Trazado_1" data-name="Trazado 1" d="M566.338,293.986V280.6l-12.324-13.057V203.913h12.324V215.08l25.82,14.242v12.785h-25.82v18.935l12.712,12.785v20.16Z" transform="translate(-324 258)" fill="rgba(0,0,0,0.23)"/>
    <path id="Trazado_2" data-name="Trazado 2" d="M629.712,294V274.6l12.476-12.855V241.606H630.744l-44.519-24.869v-13.2h56.917v25.62h12.785v38.032l-13.739,13.245V294Z" transform="translate(-324 258)" fill="rgba(31,33,32,0.18)"/>
    <path id="Trazado_3" data-name="Trazado 3" d="M605.213,73.344s46.769,9.548,57.269,62.358c.067-.406,0,136.094,0,136.094h8.044s0-136,0-136.094C661.29,71.127,605.213,73.344,605.213,73.344Z" transform="translate(-323.608 258.616)" fill="rgba(255,255,255,0.26)"/>
    <rect id="Rectángulo_1" data-name="Rectángulo 1" width="155" height="22" rx="11" transform="translate(203 530)" fill="#31beb5"/>
  </g>
</svg>
