<svg xmlns="http://www.w3.org/2000/svg" width="94.632" height="104.692" viewBox="0 0 94.632 104.692">
  <g transform="translate(-71.683 -59.308)">
    <g transform="translate(79 69.163)" fill="none">
      <path d="M3.8,18.891,35.553-.092a6.33,6.33,0,0,1,2.962-1.07,6.21,6.21,0,0,1,2.99.925L76.9,19.9a7.488,7.488,0,0,1,2.325,2.345,7.527,7.527,0,0,1,.756,3.22L80,70.389a6.879,6.879,0,0,1-.826,2.736,11.062,11.062,0,0,1-2.307,2.28L44.414,93.055a11.838,11.838,0,0,1-5.779,1.78,13.336,13.336,0,0,1-5.94-2.039L3.19,75.678A8.057,8.057,0,0,1,.738,73.373,6.209,6.209,0,0,1,0,70.361V25.937a10.263,10.263,0,0,1,.911-4.29A7.651,7.651,0,0,1,3.8,18.891Z" stroke="none"/>
      <path d="M 38.59695434570313 1.836936950683594 L 38.5874137878418 1.837043762207031 C 38.27568817138672 1.844627380371094 37.63898468017578 2.122268676757813 37.26800537109375 2.369132995605469 L 37.20809173583984 2.413200378417969 L 37.09227752685547 2.482444763183594 L 5.343757629394531 21.46572113037109 L 5.259597778320313 21.51604461669922 L 5.172325134277344 21.56076812744141 C 4.989181518554688 21.65461730957031 3.970504760742188 22.29505920410156 3.55029296875 23.07325744628906 C 3.125808715820313 23.85938262939453 2.995979309082031 25.30547332763672 2.998992919921875 25.89302825927734 L 2.999259948730469 25.9014892578125 L 2.999259948730469 25.93740081787109 L 2.999259948730469 70.36132049560547 L 3.002388000488281 70.38041687011719 L 2.998184204101563 70.453369140625 C 2.9976806640625 70.80486297607422 3.094390869140625 71.46969604492188 3.310173034667969 71.82927703857422 C 3.574859619140625 72.2703857421875 4.301513671875 72.84233093261719 4.717361450195313 73.09624481201172 L 34.19975280761719 90.20099639892578 L 34.26261520385742 90.23607635498047 L 34.33632659912109 90.28516387939453 C 34.99174880981445 90.70736694335938 37.03705596923828 91.79921722412109 38.70069122314453 91.83601379394531 C 38.72906112670898 91.83664703369141 38.75733947753906 91.83693695068359 38.78569412231445 91.83693695068359 C 40.37561416625977 91.83693695068359 42.20555114746094 90.90090942382813 42.78744125366211 90.53388214111328 L 42.86689376831055 90.48121643066406 L 42.98007583618164 90.41966247558594 L 75.23422241210938 72.87615966796875 C 75.76593017578125 72.46269989013672 76.43041229248047 71.84432220458984 76.64344787597656 71.51055145263672 C 76.79534149169922 71.27257537841797 76.94770050048828 70.67311096191406 76.99820709228516 70.2437744140625 L 76.97686004638672 25.46157073974609 L 76.9761962890625 25.47042846679688 L 76.97676849365234 25.44451904296875 C 76.97223663330078 25.08055114746094 76.87510681152344 24.19603729248047 76.59657287597656 23.69300079345703 C 76.32636260986328 23.20494842529297 75.66107177734375 22.67268371582031 75.34516906738281 22.46455383300781 L 40.02123260498047 2.370475769042969 L 39.95341491699219 2.331893920898438 L 39.88767623901367 2.289848327636719 C 39.6822624206543 2.158401489257813 38.97560119628906 1.836936950683594 38.59695434570313 1.836936950683594 M 38.59695816040039 -1.163063049316406 C 40.05751037597656 -1.163063049316406 41.50458526611328 -0.2371368408203125 41.50458526611328 -0.2371368408203125 L 76.89567565917969 19.89513397216797 C 76.89567565917969 19.89513397216797 78.45084381103516 20.84860229492188 79.22113800048828 22.23984527587891 C 79.99144744873047 23.63108825683594 79.97686004638672 25.46013641357422 79.97686004638672 25.46013641357422 L 79.99827575683594 70.38898468017578 C 79.99827575683594 70.38898468017578 79.87889099121094 72.01744079589844 79.17227935791016 73.12456512451172 C 78.46564483642578 74.231689453125 76.86495208740234 75.40422821044922 76.86495208740234 75.40422821044922 L 44.41350936889648 93.05504608154297 C 44.41350936889648 93.05504608154297 41.66134643554688 94.83694458007813 38.78568649291992 94.83694458007813 C 38.73514175415039 94.83694458007813 38.68473052978516 94.83639526367188 38.63412475585938 94.83527374267578 C 35.70430755615234 94.77047729492188 32.69427871704102 92.79590606689453 32.69427871704102 92.79590606689453 L 3.189765930175781 75.67832183837891 C 3.189765930175781 75.67832183837891 1.535385131835938 74.70211791992188 0.7377548217773438 73.37287902832031 C -0.05987548828125 72.04362487792969 -0.00074005126953125 70.36132049560547 -0.00074005126953125 70.36132049560547 L -0.00074005126953125 25.93740081787109 C -0.00074005126953125 25.93740081787109 -0.0406951904296875 23.40952301025391 0.9105377197265625 21.64787292480469 C 1.861785888671875 19.88624572753906 3.80419921875 18.89089202880859 3.80419921875 18.89089202880859 L 35.5527229309082 -0.09238433837890625 C 35.5527229309082 -0.09238433837890625 37.02652359008789 -1.125877380371094 38.51447677612305 -1.162063598632813 C 38.54190444946289 -1.162727355957031 38.56953430175781 -1.163063049316406 38.59695816040039 -1.163063049316406 Z" stroke="none" fill="#44c4ad"/>
    </g>
    <path d="M233.949,259.406l18.724,17.462,1.473,28.4-12.2-9.678v-9.678l-7.995-7.363Z" transform="translate(-137.777 -163.111)" fill="#d1cbdb"/>
    <path d="M226.459,240.681,273.875,292.1H279.1l41.987-51.418-18.46,13.675-19.556,10.393-8.205-10.393-9.3,8.479-5.332-8.479Z" transform="translate(-154.777 -181.373)" fill="#d1cbdb"/>
    <path d="M293.067,307.373l1.893-27.561,20.2-19.145v15.779l-9.678,5.68v11.15Z" transform="translate(-167.777 -164.373)" fill="#d1cbdb"/>
  </g>
</svg>